<svg width="32" height="32" viewBox="0 0 32 32" fill="none" xmlns="http://www.w3.org/2000/svg">
<path d="M29.3337 16.0003C29.3337 23.3641 23.3641 29.3337 16.0003 29.3337C8.63653 29.3337 2.66699 23.3641 2.66699 16.0003C2.66699 8.63653 8.63653 2.66699 16.0003 2.66699C23.3641 2.66699 29.3337 8.63653 29.3337 16.0003Z" fill="#E5EAEE"/>
<path d="M17 12C17 11.4477 16.5523 11 16 11C15.4477 11 15 11.4477 15 12L15 15H12C11.4477 15 11 15.4477 11 16C11 16.5523 11.4477 17 12 17H15V20C15 20.5523 15.4477 21 16 21C16.5523 21 17 20.5523 17 20L17 17H20C20.5523 17 21 16.5523 21 16C21 15.4477 20.5523 15 20 15H17V12Z" fill="#B5C1CA"/>
</svg>
