<svg width="25" height="24" viewBox="0 0 25 24" fill="none" xmlns="http://www.w3.org/2000/svg">
<path fill-rule="evenodd" clip-rule="evenodd" d="M10.495 4H14.505C18.2856 4 20.1759 4 21.3504 5.17157C22.1591 5.97823 22.411 7.12339 22.4894 8.98947C22.505 9.35954 22.5128 9.54458 22.4437 9.66803C22.3745 9.79147 22.0987 9.94554 21.5469 10.2537C20.9341 10.5959 20.5199 11.2497 20.5199 12C20.5199 12.7503 20.9341 13.4041 21.5469 13.7463C22.0987 14.0545 22.3745 14.2085 22.4437 14.332C22.5128 14.4554 22.505 14.6405 22.4894 15.0105C22.411 16.8766 22.1591 18.0218 21.3504 18.8284C20.1759 20 18.2856 20 14.505 20H10.495C6.71438 20 4.82407 20 3.64958 18.8284C2.84091 18.0218 2.58903 16.8766 2.51058 15.0105C2.49502 14.6405 2.48724 14.4554 2.55634 14.332C2.62545 14.2085 2.90133 14.0545 3.45308 13.7463C4.06586 13.4041 4.48007 12.7503 4.48007 12C4.48007 11.2497 4.06586 10.5959 3.45308 10.2537C2.90133 9.94554 2.62545 9.79147 2.55634 9.66802C2.48724 9.54458 2.49502 9.35954 2.51058 8.98947C2.58903 7.12339 2.84091 5.97823 3.64958 5.17157C4.82407 4 6.71439 4 10.495 4ZM16.0478 8.46967C16.3415 8.76256 16.3415 9.23744 16.0478 9.53033L10.0329 15.5303C9.73927 15.8232 9.26321 15.8232 8.96959 15.5303C8.67596 15.2374 8.67596 14.7626 8.96959 14.4697L14.9845 8.46967C15.2782 8.17678 15.7542 8.17678 16.0478 8.46967ZM15.0149 15.5C15.5686 15.5 16.0174 15.0523 16.0174 14.5C16.0174 13.9477 15.5686 13.5 15.0149 13.5C14.4613 13.5 14.0124 13.9477 14.0124 14.5C14.0124 15.0523 14.4613 15.5 15.0149 15.5ZM10.0025 10.5C10.5561 10.5 11.005 10.0523 11.005 9.5C11.005 8.94772 10.5561 8.5 10.0025 8.5C9.44882 8.5 8.99999 8.94772 8.99999 9.5C8.99999 10.0523 9.44882 10.5 10.0025 10.5Z" fill="#C5C9D3"/>
</svg>
