<svg width="32" height="32" viewBox="0 0 32 32" fill="none" xmlns="http://www.w3.org/2000/svg">
<path d="M29.3337 16.0003C29.3337 23.3641 23.3641 29.3337 16.0003 29.3337C8.63653 29.3337 2.66699 23.3641 2.66699 16.0003C2.66699 8.63653 8.63653 2.66699 16.0003 2.66699C23.3641 2.66699 29.3337 8.63653 29.3337 16.0003Z" fill="#E5EAEE"/>
<path d="M15 15H12C11.4477 15 11 15.4477 11 16C11 16.5523 11.4477 17 12 17H15H17H20C20.5523 17 21 16.5523 21 16C21 15.4477 20.5523 15 20 15H17H15Z" fill="#B5C1CA"/>
</svg>
